<mxfile host="65bd71144e">
    <diagram id="8TEd3o8tfnUCQelQGDyB" name="ページ1">
        <mxGraphModel dx="704" dy="808" grid="1" gridSize="10" guides="1" tooltips="1" connect="1" arrows="1" fold="1" page="1" pageScale="1" pageWidth="1169" pageHeight="827" background="#ffffff" math="0" shadow="0">
            <root>
                <mxCell id="0"/>
                <mxCell id="1" parent="0"/>
                <mxCell id="13" value="" style="rounded=0;whiteSpace=wrap;html=1;fontSize=18;fillColor=none;dashed=1;dashPattern=8 8;movable=1;resizable=1;rotatable=1;deletable=1;editable=1;connectable=1;strokeWidth=3;" vertex="1" parent="1">
                    <mxGeometry x="60" y="130" width="450" height="210" as="geometry"/>
                </mxCell>
                <mxCell id="10" style="edgeStyle=elbowEdgeStyle;rounded=0;html=1;entryX=0;entryY=0.25;entryDx=0;entryDy=0;entryPerimeter=0;fontSize=18;endArrow=none;endFill=0;exitX=1;exitY=0.25;exitDx=0;exitDy=0;" edge="1" parent="1" source="3" target="8">
                    <mxGeometry relative="1" as="geometry">
                        <Array as="points">
                            <mxPoint x="370" y="230"/>
                        </Array>
                    </mxGeometry>
                </mxCell>
                <mxCell id="3" value="&lt;font style=&quot;font-size: 22px;&quot;&gt;GSE&lt;/font&gt;" style="rounded=1;whiteSpace=wrap;html=1;" vertex="1" parent="1">
                    <mxGeometry x="80" y="180" width="80" height="140" as="geometry"/>
                </mxCell>
                <mxCell id="6" style="edgeStyle=none;html=1;fontSize=22;endArrow=none;endFill=0;" edge="1" parent="1" source="4">
                    <mxGeometry relative="1" as="geometry">
                        <mxPoint x="160" y="280" as="targetPoint"/>
                    </mxGeometry>
                </mxCell>
                <mxCell id="9" style="edgeStyle=elbowEdgeStyle;html=1;entryX=0;entryY=0.75;entryDx=0;entryDy=0;entryPerimeter=0;fontSize=18;endArrow=none;endFill=0;exitX=1;exitY=0.5;exitDx=0;exitDy=0;exitPerimeter=0;rounded=0;" edge="1" parent="1" source="4" target="8">
                    <mxGeometry relative="1" as="geometry"/>
                </mxCell>
                <mxCell id="4" value="" style="verticalLabelPosition=bottom;shadow=0;dashed=0;align=center;html=1;verticalAlign=top;shape=mxgraph.electrical.logic_gates.inverter_2;fontSize=22;" vertex="1" parent="1">
                    <mxGeometry x="240" y="250" width="100" height="60" as="geometry"/>
                </mxCell>
                <mxCell id="7" value="&lt;font style=&quot;font-size: 18px;&quot;&gt;バルブ閉&lt;/font&gt;" style="text;html=1;align=center;verticalAlign=middle;resizable=0;points=[];autosize=1;strokeColor=none;fillColor=none;fontSize=22;" vertex="1" parent="1">
                    <mxGeometry x="150" y="240" width="100" height="40" as="geometry"/>
                </mxCell>
                <mxCell id="16" style="edgeStyle=elbowEdgeStyle;rounded=0;html=1;exitX=1;exitY=0.5;exitDx=0;exitDy=0;exitPerimeter=0;entryX=0;entryY=0.25;entryDx=0;entryDy=0;entryPerimeter=0;fontSize=18;endArrow=none;endFill=0;" edge="1" parent="1" source="8" target="15">
                    <mxGeometry relative="1" as="geometry">
                        <Array as="points">
                            <mxPoint x="550" y="260"/>
                        </Array>
                    </mxGeometry>
                </mxCell>
                <mxCell id="8" value="" style="verticalLabelPosition=bottom;shadow=0;dashed=0;align=center;html=1;verticalAlign=top;shape=mxgraph.electrical.logic_gates.logic_gate;operation=and;fontSize=18;" vertex="1" parent="1">
                    <mxGeometry x="400" y="220" width="100" height="60" as="geometry"/>
                </mxCell>
                <mxCell id="11" value="バルブ開" style="text;html=1;align=center;verticalAlign=middle;resizable=0;points=[];autosize=1;strokeColor=none;fillColor=none;fontSize=18;" vertex="1" parent="1">
                    <mxGeometry x="150" y="180" width="100" height="40" as="geometry"/>
                </mxCell>
                <mxCell id="12" value="&lt;b&gt;バルブ制御系&lt;/b&gt;" style="text;html=1;align=center;verticalAlign=middle;resizable=0;points=[];autosize=1;strokeColor=none;fillColor=none;fontSize=18;" vertex="1" parent="1">
                    <mxGeometry x="80" y="130" width="130" height="40" as="geometry"/>
                </mxCell>
                <mxCell id="56" style="edgeStyle=elbowEdgeStyle;rounded=0;html=1;exitX=1;exitY=0.5;exitDx=0;exitDy=0;exitPerimeter=0;entryX=0;entryY=0.25;entryDx=0;entryDy=0;entryPerimeter=0;fontSize=16;startArrow=none;startFill=0;endArrow=none;endFill=0;" edge="1" parent="1" source="15" target="19">
                    <mxGeometry relative="1" as="geometry">
                        <Array as="points">
                            <mxPoint x="860" y="310"/>
                        </Array>
                    </mxGeometry>
                </mxCell>
                <mxCell id="15" value="" style="verticalLabelPosition=bottom;shadow=0;dashed=0;align=center;html=1;verticalAlign=top;shape=mxgraph.electrical.logic_gates.logic_gate;operation=and;dashPattern=8 8;fontSize=18;fillColor=none;" vertex="1" parent="1">
                    <mxGeometry x="560" y="250" width="100" height="60" as="geometry"/>
                </mxCell>
                <mxCell id="18" style="edgeStyle=elbowEdgeStyle;rounded=0;html=1;fontSize=18;endArrow=oval;endFill=1;startArrow=none;startFill=0;" edge="1" parent="1" source="17">
                    <mxGeometry relative="1" as="geometry">
                        <mxPoint x="550" y="250" as="targetPoint"/>
                        <Array as="points">
                            <mxPoint x="550" y="230"/>
                        </Array>
                    </mxGeometry>
                </mxCell>
                <mxCell id="37" style="edgeStyle=elbowEdgeStyle;rounded=0;html=1;entryX=0;entryY=0.25;entryDx=0;entryDy=0;entryPerimeter=0;fontSize=16;startArrow=none;startFill=0;endArrow=none;endFill=0;" edge="1" parent="1" source="17" target="35">
                    <mxGeometry relative="1" as="geometry">
                        <Array as="points">
                            <mxPoint x="990" y="240"/>
                        </Array>
                    </mxGeometry>
                </mxCell>
                <mxCell id="17" value="分離保護&lt;br&gt;タイマー" style="rounded=0;whiteSpace=wrap;html=1;fontSize=18;fillColor=default;" vertex="1" parent="1">
                    <mxGeometry x="580" y="160" width="110" height="60" as="geometry"/>
                </mxCell>
                <mxCell id="36" style="edgeStyle=elbowEdgeStyle;rounded=0;html=1;exitX=1;exitY=0.5;exitDx=0;exitDy=0;exitPerimeter=0;entryX=0;entryY=0.75;entryDx=0;entryDy=0;entryPerimeter=0;fontSize=16;startArrow=none;startFill=0;endArrow=none;endFill=0;" edge="1" parent="1" source="19" target="35">
                    <mxGeometry relative="1" as="geometry">
                        <Array as="points">
                            <mxPoint x="1070" y="330"/>
                            <mxPoint x="1000" y="320"/>
                            <mxPoint x="940" y="320"/>
                        </Array>
                    </mxGeometry>
                </mxCell>
                <mxCell id="19" value="" style="verticalLabelPosition=bottom;shadow=0;dashed=0;align=center;html=1;verticalAlign=top;shape=mxgraph.electrical.logic_gates.logic_gate;operation=and;dashPattern=8 8;fontSize=18;fillColor=none;" vertex="1" parent="1">
                    <mxGeometry x="900" y="310" width="100" height="60" as="geometry"/>
                </mxCell>
                <mxCell id="21" value="&lt;font style=&quot;font-size: 16px;&quot;&gt;離床検知&lt;/font&gt;" style="text;html=1;align=center;verticalAlign=middle;resizable=0;points=[];autosize=1;strokeColor=none;fillColor=none;fontSize=18;" vertex="1" parent="1">
                    <mxGeometry x="630" y="240" width="90" height="40" as="geometry"/>
                </mxCell>
                <mxCell id="34" style="edgeStyle=elbowEdgeStyle;rounded=0;html=1;fontSize=16;startArrow=none;startFill=0;endArrow=oval;endFill=1;" edge="1" parent="1" source="23">
                    <mxGeometry relative="1" as="geometry">
                        <mxPoint x="550" y="190" as="targetPoint"/>
                        <Array as="points">
                            <mxPoint x="550" y="150"/>
                        </Array>
                    </mxGeometry>
                </mxCell>
                <mxCell id="40" style="edgeStyle=elbowEdgeStyle;rounded=0;html=1;entryX=0;entryY=0.25;entryDx=0;entryDy=0;entryPerimeter=0;fontSize=16;startArrow=none;startFill=0;endArrow=none;endFill=0;" edge="1" parent="1" source="23" target="59">
                    <mxGeometry relative="1" as="geometry">
                        <mxPoint x="1060" y="220" as="targetPoint"/>
                        <Array as="points">
                            <mxPoint x="1110" y="160"/>
                        </Array>
                    </mxGeometry>
                </mxCell>
                <mxCell id="23" value="強制分離&lt;br&gt;タイマー" style="rounded=0;whiteSpace=wrap;html=1;fontSize=18;fillColor=default;" vertex="1" parent="1">
                    <mxGeometry x="580" y="80" width="110" height="60" as="geometry"/>
                </mxCell>
                <mxCell id="27" style="edgeStyle=elbowEdgeStyle;rounded=0;html=1;exitX=1;exitY=0.5;exitDx=0;exitDy=0;exitPerimeter=0;entryX=0;entryY=0.75;entryDx=0;entryDy=0;entryPerimeter=0;fontSize=16;startArrow=none;startFill=0;endArrow=none;endFill=0;" edge="1" parent="1" source="26" target="15">
                    <mxGeometry relative="1" as="geometry">
                        <Array as="points">
                            <mxPoint x="550" y="360"/>
                        </Array>
                    </mxGeometry>
                </mxCell>
                <mxCell id="26" value="" style="verticalLabelPosition=bottom;shadow=0;dashed=0;align=center;html=1;verticalAlign=top;shape=mxgraph.electrical.logic_gates.schmitt_trigger;fontSize=16;fillColor=default;" vertex="1" parent="1">
                    <mxGeometry x="430" y="390" width="100" height="60" as="geometry"/>
                </mxCell>
                <mxCell id="29" style="edgeStyle=elbowEdgeStyle;rounded=0;html=1;entryX=0;entryY=0.5;entryDx=0;entryDy=0;entryPerimeter=0;fontSize=16;startArrow=none;startFill=0;endArrow=none;endFill=0;" edge="1" parent="1" source="28" target="26">
                    <mxGeometry relative="1" as="geometry"/>
                </mxCell>
                <mxCell id="28" value="" style="verticalLabelPosition=bottom;shadow=0;dashed=0;align=center;html=1;verticalAlign=top;shape=mxgraph.electrical.logic_gates.lowpass_filter;fontSize=16;fillColor=default;" vertex="1" parent="1">
                    <mxGeometry x="360" y="397" width="52" height="46" as="geometry"/>
                </mxCell>
                <mxCell id="31" style="edgeStyle=elbowEdgeStyle;rounded=0;html=1;exitX=1;exitY=0.5;exitDx=0;exitDy=0;exitPerimeter=0;entryX=0;entryY=0.5;entryDx=0;entryDy=0;entryPerimeter=0;fontSize=16;startArrow=none;startFill=0;endArrow=none;endFill=0;" edge="1" parent="1" source="30" target="28">
                    <mxGeometry relative="1" as="geometry"/>
                </mxCell>
                <mxCell id="30" value="" style="verticalLabelPosition=bottom;shadow=0;dashed=0;align=center;html=1;verticalAlign=top;shape=mxgraph.electrical.logic_gates.inverter_2;fontSize=16;fillColor=default;" vertex="1" parent="1">
                    <mxGeometry x="240" y="390" width="100" height="60" as="geometry"/>
                </mxCell>
                <mxCell id="33" style="edgeStyle=elbowEdgeStyle;rounded=0;html=1;entryX=0;entryY=0.5;entryDx=0;entryDy=0;entryPerimeter=0;fontSize=16;startArrow=none;startFill=0;endArrow=none;endFill=0;" edge="1" parent="1" source="32" target="30">
                    <mxGeometry relative="1" as="geometry"/>
                </mxCell>
                <mxCell id="32" value="フライトピン" style="rounded=1;whiteSpace=wrap;html=1;fontSize=16;fillColor=default;" vertex="1" parent="1">
                    <mxGeometry x="80" y="390" width="120" height="60" as="geometry"/>
                </mxCell>
                <mxCell id="39" style="edgeStyle=elbowEdgeStyle;rounded=0;html=1;exitX=1;exitY=0.5;exitDx=0;exitDy=0;exitPerimeter=0;entryX=0;entryY=0.75;entryDx=0;entryDy=0;entryPerimeter=0;fontSize=16;startArrow=none;startFill=0;endArrow=none;endFill=0;" edge="1" parent="1" source="35" target="59">
                    <mxGeometry relative="1" as="geometry">
                        <mxPoint x="1140" y="250" as="targetPoint"/>
                        <Array as="points">
                            <mxPoint x="1190" y="260"/>
                            <mxPoint x="1120" y="270"/>
                        </Array>
                    </mxGeometry>
                </mxCell>
                <mxCell id="35" value="" style="verticalLabelPosition=bottom;shadow=0;dashed=0;align=center;html=1;verticalAlign=top;shape=mxgraph.electrical.logic_gates.logic_gate;operation=and;dashPattern=8 8;fontSize=18;fillColor=none;" vertex="1" parent="1">
                    <mxGeometry x="1080" y="270" width="100" height="60" as="geometry"/>
                </mxCell>
                <mxCell id="41" value="分離許可" style="text;html=1;align=center;verticalAlign=middle;resizable=0;points=[];autosize=1;strokeColor=none;fillColor=none;fontSize=16;" vertex="1" parent="1">
                    <mxGeometry x="690" y="160" width="90" height="30" as="geometry"/>
                </mxCell>
                <mxCell id="42" value="強制分離" style="text;html=1;align=center;verticalAlign=middle;resizable=0;points=[];autosize=1;strokeColor=none;fillColor=none;fontSize=16;" vertex="1" parent="1">
                    <mxGeometry x="690" y="80" width="90" height="30" as="geometry"/>
                </mxCell>
                <mxCell id="46" style="edgeStyle=elbowEdgeStyle;rounded=0;html=1;entryX=0;entryY=0.25;entryDx=0;entryDy=0;fontSize=16;startArrow=none;startFill=0;endArrow=none;endFill=0;" edge="1" parent="1" source="43" target="45">
                    <mxGeometry relative="1" as="geometry"/>
                </mxCell>
                <mxCell id="43" value="気圧センサ" style="rounded=1;whiteSpace=wrap;html=1;fontSize=16;fillColor=default;" vertex="1" parent="1">
                    <mxGeometry x="80" y="560" width="120" height="60" as="geometry"/>
                </mxCell>
                <mxCell id="47" style="edgeStyle=elbowEdgeStyle;rounded=0;html=1;entryX=0;entryY=0.75;entryDx=0;entryDy=0;fontSize=16;startArrow=none;startFill=0;endArrow=none;endFill=0;" edge="1" parent="1" source="44" target="45">
                    <mxGeometry relative="1" as="geometry"/>
                </mxCell>
                <mxCell id="44" value="サーミスタ" style="rounded=1;whiteSpace=wrap;html=1;fontSize=16;fillColor=default;" vertex="1" parent="1">
                    <mxGeometry x="80" y="660" width="120" height="60" as="geometry"/>
                </mxCell>
                <mxCell id="51" style="edgeStyle=elbowEdgeStyle;rounded=0;html=1;entryX=0;entryY=0.5;entryDx=0;entryDy=0;fontSize=16;startArrow=none;startFill=0;endArrow=none;endFill=0;" edge="1" parent="1" source="45" target="50">
                    <mxGeometry relative="1" as="geometry"/>
                </mxCell>
                <mxCell id="45" value="高度算出" style="rounded=0;whiteSpace=wrap;html=1;fontSize=16;fillColor=default;" vertex="1" parent="1">
                    <mxGeometry x="320" y="600" width="80" height="80" as="geometry"/>
                </mxCell>
                <mxCell id="48" value="気圧" style="text;html=1;align=center;verticalAlign=middle;resizable=0;points=[];autosize=1;strokeColor=none;fillColor=none;fontSize=16;" vertex="1" parent="1">
                    <mxGeometry x="200" y="560" width="60" height="30" as="geometry"/>
                </mxCell>
                <mxCell id="49" value="気温" style="text;html=1;align=center;verticalAlign=middle;resizable=0;points=[];autosize=1;strokeColor=none;fillColor=none;fontSize=16;" vertex="1" parent="1">
                    <mxGeometry x="200" y="660" width="60" height="30" as="geometry"/>
                </mxCell>
                <mxCell id="53" style="edgeStyle=elbowEdgeStyle;rounded=0;html=1;entryX=0;entryY=0.5;entryDx=0;entryDy=0;fontSize=16;startArrow=none;startFill=0;endArrow=none;endFill=0;" edge="1" parent="1" source="50" target="52">
                    <mxGeometry relative="1" as="geometry"/>
                </mxCell>
                <mxCell id="50" value="積分" style="rounded=0;whiteSpace=wrap;html=1;fontSize=16;fillColor=default;" vertex="1" parent="1">
                    <mxGeometry x="500" y="615" width="80" height="50" as="geometry"/>
                </mxCell>
                <mxCell id="57" style="edgeStyle=elbowEdgeStyle;rounded=0;html=1;entryX=0;entryY=0.75;entryDx=0;entryDy=0;entryPerimeter=0;fontSize=16;startArrow=none;startFill=0;endArrow=none;endFill=0;" edge="1" parent="1" source="52" target="19">
                    <mxGeometry relative="1" as="geometry">
                        <Array as="points">
                            <mxPoint x="860" y="500"/>
                        </Array>
                    </mxGeometry>
                </mxCell>
                <mxCell id="52" value="&amp;lt;= 0" style="rounded=0;whiteSpace=wrap;html=1;fontSize=16;fillColor=default;" vertex="1" parent="1">
                    <mxGeometry x="680" y="615" width="80" height="50" as="geometry"/>
                </mxCell>
                <mxCell id="58" value="頂点検知" style="text;html=1;align=center;verticalAlign=middle;resizable=0;points=[];autosize=1;strokeColor=none;fillColor=none;fontSize=16;" vertex="1" parent="1">
                    <mxGeometry x="970" y="310" width="90" height="30" as="geometry"/>
                </mxCell>
                <mxCell id="61" style="edgeStyle=elbowEdgeStyle;rounded=0;html=1;exitX=1;exitY=0.5;exitDx=0;exitDy=0;exitPerimeter=0;entryX=0;entryY=0.5;entryDx=0;entryDy=0;fontSize=16;startArrow=none;startFill=0;endArrow=none;endFill=0;" edge="1" parent="1" target="60">
                    <mxGeometry relative="1" as="geometry">
                        <mxPoint x="1320" y="235" as="sourcePoint"/>
                    </mxGeometry>
                </mxCell>
                <mxCell id="59" value="" style="verticalLabelPosition=bottom;shadow=0;dashed=0;align=center;html=1;verticalAlign=top;shape=mxgraph.electrical.logic_gates.logic_gate;operation=or;fontSize=16;fillColor=default;" vertex="1" parent="1">
                    <mxGeometry x="1220" y="205" width="100" height="60" as="geometry"/>
                </mxCell>
                <mxCell id="64" style="edgeStyle=elbowEdgeStyle;rounded=0;html=1;fontSize=16;startArrow=none;startFill=0;endArrow=block;endFill=1;endSize=11;startSize=6;targetPerimeterSpacing=0;strokeWidth=1;" edge="1" parent="1" source="60">
                    <mxGeometry relative="1" as="geometry">
                        <mxPoint x="1440" y="149.9999999999999" as="targetPoint"/>
                    </mxGeometry>
                </mxCell>
                <mxCell id="67" style="edgeStyle=elbowEdgeStyle;rounded=0;html=1;entryX=0;entryY=0.5;entryDx=0;entryDy=0;strokeWidth=1;fontSize=16;startArrow=none;startFill=0;endArrow=none;endFill=0;startSize=6;endSize=11;targetPerimeterSpacing=0;exitX=0.5;exitY=1;exitDx=0;exitDy=0;" edge="1" parent="1" source="60" target="66">
                    <mxGeometry relative="1" as="geometry">
                        <Array as="points">
                            <mxPoint x="1440" y="280"/>
                        </Array>
                    </mxGeometry>
                </mxCell>
                <mxCell id="60" value="リレー" style="rounded=0;whiteSpace=wrap;html=1;fontSize=16;fillColor=default;" vertex="1" parent="1">
                    <mxGeometry x="1400" y="205" width="80" height="60" as="geometry"/>
                </mxCell>
                <mxCell id="62" value="分離信号" style="text;html=1;align=center;verticalAlign=middle;resizable=0;points=[];autosize=1;strokeColor=none;fillColor=none;fontSize=16;" vertex="1" parent="1">
                    <mxGeometry x="1290" y="205" width="90" height="30" as="geometry"/>
                </mxCell>
                <mxCell id="65" value="12 V" style="text;html=1;align=center;verticalAlign=middle;resizable=0;points=[];autosize=1;strokeColor=none;fillColor=none;fontSize=16;" vertex="1" parent="1">
                    <mxGeometry x="1410" y="125" width="60" height="30" as="geometry"/>
                </mxCell>
                <mxCell id="66" value="減速装置放出機構" style="rounded=0;whiteSpace=wrap;html=1;fontSize=16;fillColor=default;" vertex="1" parent="1">
                    <mxGeometry x="1560" y="260" width="160" height="60" as="geometry"/>
                </mxCell>
                <mxCell id="68" value="" style="endArrow=none;dashed=1;html=1;rounded=0;strokeWidth=1;fontSize=16;startSize=6;endSize=11;targetPerimeterSpacing=0;" edge="1" parent="1">
                    <mxGeometry width="50" height="50" relative="1" as="geometry">
                        <mxPoint x="60" y="370" as="sourcePoint"/>
                        <mxPoint x="530" y="370" as="targetPoint"/>
                    </mxGeometry>
                </mxCell>
                <mxCell id="69" value="" style="endArrow=none;dashed=1;html=1;rounded=0;strokeWidth=1;fontSize=16;startSize=6;endSize=11;targetPerimeterSpacing=0;" edge="1" parent="1">
                    <mxGeometry width="50" height="50" relative="1" as="geometry">
                        <mxPoint x="530" y="370" as="sourcePoint"/>
                        <mxPoint x="530" y="30" as="targetPoint"/>
                    </mxGeometry>
                </mxCell>
                <mxCell id="70" value="&lt;b&gt;&lt;font style=&quot;font-size: 18px;&quot;&gt;分離制御系&lt;/font&gt;&lt;/b&gt;" style="text;html=1;align=center;verticalAlign=middle;resizable=0;points=[];autosize=1;strokeColor=none;fillColor=none;fontSize=16;" vertex="1" parent="1">
                    <mxGeometry x="550" y="30" width="110" height="40" as="geometry"/>
                </mxCell>
                <mxCell id="71" value="&lt;b&gt;センサ系&lt;/b&gt;" style="text;html=1;align=center;verticalAlign=middle;resizable=0;points=[];autosize=1;strokeColor=none;fillColor=none;fontSize=18;" vertex="1" parent="1">
                    <mxGeometry x="80" y="510" width="100" height="40" as="geometry"/>
                </mxCell>
                <mxCell id="72" value="" style="endArrow=none;dashed=1;html=1;rounded=0;strokeWidth=1;fontSize=16;startSize=6;endSize=11;targetPerimeterSpacing=0;" edge="1" parent="1">
                    <mxGeometry width="50" height="50" relative="1" as="geometry">
                        <mxPoint x="60" y="370" as="sourcePoint"/>
                        <mxPoint x="60" y="480" as="targetPoint"/>
                    </mxGeometry>
                </mxCell>
                <mxCell id="73" value="" style="endArrow=none;dashed=1;html=1;rounded=0;strokeWidth=1;fontSize=16;startSize=6;endSize=11;targetPerimeterSpacing=0;" edge="1" parent="1">
                    <mxGeometry width="50" height="50" relative="1" as="geometry">
                        <mxPoint x="840" y="480" as="sourcePoint"/>
                        <mxPoint x="60" y="480" as="targetPoint"/>
                    </mxGeometry>
                </mxCell>
                <mxCell id="74" value="落下検知" style="text;html=1;align=center;verticalAlign=middle;resizable=0;points=[];autosize=1;strokeColor=none;fillColor=none;fontSize=18;" vertex="1" parent="1">
                    <mxGeometry x="760" y="600" width="100" height="40" as="geometry"/>
                </mxCell>
                <mxCell id="75" value="垂直速度" style="text;html=1;align=center;verticalAlign=middle;resizable=0;points=[];autosize=1;strokeColor=none;fillColor=none;fontSize=18;" vertex="1" parent="1">
                    <mxGeometry x="580" y="600" width="100" height="40" as="geometry"/>
                </mxCell>
                <mxCell id="77" value="気圧高度" style="text;html=1;align=center;verticalAlign=middle;resizable=0;points=[];autosize=1;strokeColor=none;fillColor=none;fontSize=18;" vertex="1" parent="1">
                    <mxGeometry x="400" y="600" width="100" height="40" as="geometry"/>
                </mxCell>
                <mxCell id="78" value="" style="endArrow=none;dashed=1;html=1;rounded=0;strokeWidth=1;fontSize=16;startSize=6;endSize=11;targetPerimeterSpacing=0;" edge="1" parent="1">
                    <mxGeometry width="50" height="50" relative="1" as="geometry">
                        <mxPoint x="1520" y="30" as="sourcePoint"/>
                        <mxPoint x="530" y="30" as="targetPoint"/>
                    </mxGeometry>
                </mxCell>
                <mxCell id="79" value="" style="endArrow=none;dashed=1;html=1;rounded=0;strokeWidth=1;fontSize=16;startSize=6;endSize=11;targetPerimeterSpacing=0;" edge="1" parent="1">
                    <mxGeometry width="50" height="50" relative="1" as="geometry">
                        <mxPoint x="840" y="480" as="sourcePoint"/>
                        <mxPoint x="840" y="730" as="targetPoint"/>
                    </mxGeometry>
                </mxCell>
                <mxCell id="80" value="" style="endArrow=none;dashed=1;html=1;strokeWidth=1;rounded=0;fontSize=18;startSize=6;endSize=11;targetPerimeterSpacing=0;" edge="1" parent="1">
                    <mxGeometry width="50" height="50" relative="1" as="geometry">
                        <mxPoint x="1520" y="730" as="sourcePoint"/>
                        <mxPoint x="1520" y="30" as="targetPoint"/>
                    </mxGeometry>
                </mxCell>
                <mxCell id="81" value="" style="endArrow=none;dashed=1;html=1;strokeWidth=1;rounded=0;fontSize=18;startSize=6;endSize=11;targetPerimeterSpacing=0;" edge="1" parent="1">
                    <mxGeometry width="50" height="50" relative="1" as="geometry">
                        <mxPoint x="840" y="730" as="sourcePoint"/>
                        <mxPoint x="1520" y="730" as="targetPoint"/>
                    </mxGeometry>
                </mxCell>
                <mxCell id="82" value="" style="rounded=0;whiteSpace=wrap;html=1;fontSize=18;fillColor=none;dashed=1;dashPattern=8 8;strokeWidth=2;" vertex="1" parent="1">
                    <mxGeometry x="60" y="500" width="710" height="230" as="geometry"/>
                </mxCell>
            </root>
        </mxGraphModel>
    </diagram>
</mxfile>